<?xml version="1.0" encoding="UTF-8" standalone="no"?> <svg id="Layer_1" data-name="Layer 1" xmlns="http://www.w3.org/2000/svg" viewBox="0 0 64 64"><defs><style>.cls-1{fill:#e2a983;}.cls-2{fill:#b78563;}.cls-3{fill:#fff;}.cls-4{fill:#e5e5e5;}.cls-5{fill:#844e40;}.cls-6{fill:#5e3128;}.cls-7{fill:#35251c;}</style></defs><title>Coffee Ice Cream Icon</title><path class="cls-1" d="M22,19.74h8.58L41,14.52a2,2,0,0,0,.86-2.64l-1-2a2,2,0,0,0-2.64-.87L22.78,16.85a2,2,0,0,0-.87,2.64Z"/><path class="cls-1" d="M44.23,19.74l2.51-1.26a2,2,0,0,0,.87-2.64l-1-2A2,2,0,0,0,44,13L30.65,19.74Z"/><path class="cls-2" d="M40.85,9.93a2,2,0,0,0-2.64-.87L35.1,10.63v6.85l5.87-3a2,2,0,0,0,.86-2.64Z"/><path class="cls-2" d="M46.62,13.88A2,2,0,0,0,44,13L35.1,17.5v2.24h9.13l2.51-1.26a2,2,0,0,0,.87-2.64Z"/><rect class="cls-3" x="17.96" y="21.24" width="31.47" height="5.71" rx="2.08"/><path class="cls-4" d="M47.35,21.24H35.1V27H47.35a2.08,2.08,0,0,0,2.08-2.08V23.33A2.08,2.08,0,0,0,47.35,21.24Z"/><path class="cls-3" d="M41,56.93H27.6c-1.81,0-3.27,2.31-3.27,5.16v.06H44.24v-.06C44.24,59.24,42.78,56.93,41,56.93Z"/><path class="cls-4" d="M41,56.93H35.1v5.22h9.14v-.06C44.24,59.24,42.78,56.93,41,56.93Z"/><polygon class="cls-3" points="44.01 32 44.75 26.93 22.64 26.93 23.5 32 44.01 32"/><polygon class="cls-4" points="44.01 32 44.75 26.93 35.1 26.93 35.1 32 44.01 32"/><path class="cls-5" d="M23.51,32l3.24,19A7,7,0,0,0,34,56.63c3.8,0,6.6-1.57,7.22-5.41h0L44,32Z"/><path class="cls-6" d="M35.1,56.57c3.23-.29,5.55-1.9,6.11-5.35h0L44,32H35.1Z"/><path class="cls-1" d="M37.18,9.34S33.69,2.87,32,2.87s-6.49,12.35-6.49,12.35Z"/><path class="cls-7" d="M47.35,19.74h.18a3.42,3.42,0,0,0,1.61-1.93A3.48,3.48,0,0,0,49,15.16l-1-1.95a3.44,3.44,0,0,0-2-1.73,3.4,3.4,0,0,0-2.6.18,2.82,2.82,0,0,0-.18-.45l-1-2a3.45,3.45,0,0,0-4.27-1.67C35.57,3.46,33.58,1.37,32,1.37c-.91,0-2.58,0-7.28,11.77L20.28,4.25l0-.06a1.42,1.42,0,0,0-.92-.8L13.48,1.73a1.46,1.46,0,0,0-1.79,1l0,.09a1.46,1.46,0,0,0,1,1.79l5.18,1.47,4.61,9.24-.36.18a3.45,3.45,0,0,0-1.69,4.23H20a3.58,3.58,0,0,0-3.58,3.58v1.55A3.58,3.58,0,0,0,20,28.45h1.34l3.9,22.82a7.9,7.9,0,0,0,2.12,4.18c-2.58.14-4.57,3-4.57,6.7v1.5H44.24l1.43,0,.07-1.43v-.1c0-3.73-2.1-6.66-4.77-6.66h0a7.94,7.94,0,0,0,1.75-4l3.35-23h1.31a3.58,3.58,0,0,0,3.58-3.58V23.32A3.59,3.59,0,0,0,47.35,19.74Zm-2.69-5.39a.54.54,0,0,1,.21,0,.58.58,0,0,1,.14,0,.43.43,0,0,1,.27.23l1,2a.46.46,0,0,1,0,.36.44.44,0,0,1-.23.27l-5.16,2.6H34ZM38.89,10.4a.46.46,0,0,1,.62.21l1,2a.46.46,0,0,1-.21.62l-13,6.56H23.72l-.47-.93a.45.45,0,0,1,.2-.62ZM32.16,4.62A22.33,22.33,0,0,1,35.1,8.71l-6.68,3.36A48.09,48.09,0,0,1,32.16,4.62ZM41,58.43c.55,0,1.3.84,1.62,2.22H26c.32-1.39,1.06-2.22,1.61-2.22ZM39.73,51c-.17,1-.67,4.15-5.74,4.15a5.56,5.56,0,0,1-5.76-4.37L24.42,28.45H43Zm8.2-26.11a.58.58,0,0,1-.58.58H20a.58.58,0,0,1-.58-.58V23.32a.58.58,0,0,1,.58-.58H47.35a.58.58,0,0,1,.58.58Z"/></svg>