<svg id="Layer_1" data-name="Layer 1" xmlns="http://www.w3.org/2000/svg" viewBox="0 0 1259.99 1401.91"><defs><style>.cls-1{fill:#eaeaea;}.cls-2{fill:#4c8945;}.cls-3{fill:#44783e;}.cls-4{fill:#bacdcb;}.cls-5{fill:#464f5a;}.cls-6{fill:#3a424a;}.cls-7{fill:#2b3035;}.cls-11,.cls-8,.cls-9{fill:#fff;}.cls-9{opacity:0.18;}.cls-10{fill:#515b67;}.cls-11{opacity:0.09;}.cls-12{fill:#9aa8a6;}</style></defs><title>vending-machine</title><ellipse class="cls-1" cx="630" cy="1388.82" rx="630" ry="13.09"/><path class="cls-2" d="M110.67,0H884.46a0,0,0,0,1,0,0V1330.19a0,0,0,0,1,0,0H38.56a0,0,0,0,1,0,0V72.11A72.11,72.11,0,0,1,110.67,0Z"/><polygon class="cls-3" points="831.16 1142.08 112.81 1142.08 112.81 97.91 810.21 69.96 831.16 97.91 831.16 1142.08"/><path class="cls-2" d="M1129.84,944.61H854.49V-385.58h246c14.66,2.11,29.31,31.89,29.31,71.24Z" transform="translate(30.37 385.58)"/><rect class="cls-4" x="112.81" y="69.96" width="697.4" height="1044.17"/><rect class="cls-5" x="158.36" y="104.64" width="606.3" height="978.67"/><rect class="cls-4" x="877.81" width="40.17" height="1330.19"/><path class="cls-4" d="M1104.24-385.58h-3.71V944.61h29.31V-310C1129.84-351.74,1118.38-385.58,1104.24-385.58Z" transform="translate(30.37 385.58)"/><path class="cls-6" d="M128,697.73H203.2c9.89-221.31,37.72-444.17,154.15-629.59C446-73.09,581.55-181.16,734.29-249.24v-31.7H128Z" transform="translate(30.37 385.58)"/><rect class="cls-6" x="66.72" y="1330.19" width="1093.5" height="33.16"/><rect class="cls-6" x="66.72" y="1330.19" width="58.63" height="58.63"/><rect class="cls-6" x="1101.59" y="1330.19" width="58.63" height="58.63"/><rect class="cls-3" x="917.97" width="16.9" height="1330.19"/><rect class="cls-6" x="953.21" y="222.98" width="135.79" height="122.64"/><polygon class="cls-7" points="972.89 243.81 1089 243.81 1089 222.98 953.21 222.98 953.21 345.62 972.89 345.62 972.89 243.81"/><rect class="cls-4" x="965.7" y="454.73" width="123.3" height="260.08"/><rect class="cls-6" x="976.93" y="465.93" width="21.67" height="21.67" rx="5.12"/><rect class="cls-6" x="1015.42" y="465.93" width="21.67" height="21.67" rx="5.12"/><rect class="cls-6" x="1053.91" y="465.93" width="21.67" height="21.67" rx="5.12"/><rect class="cls-6" x="976.93" y="501.23" width="21.67" height="21.67" rx="5.12"/><rect class="cls-6" x="1015.42" y="501.23" width="21.67" height="21.67" rx="5.12"/><rect class="cls-6" x="1053.91" y="501.23" width="21.67" height="21.67" rx="5.12"/><rect class="cls-6" x="978.02" y="536.53" width="21.67" height="21.67" rx="5.12"/><rect class="cls-6" x="1016.52" y="536.53" width="21.67" height="21.67" rx="5.12"/><rect class="cls-6" x="1055.01" y="536.53" width="21.67" height="21.67" rx="5.12"/><rect class="cls-6" x="976.93" y="571.84" width="21.67" height="21.67" rx="5.12"/><rect class="cls-6" x="1015.42" y="571.84" width="21.67" height="21.67" rx="5.12"/><rect class="cls-6" x="1053.91" y="571.84" width="21.67" height="21.67" rx="5.12"/><rect class="cls-6" x="978.02" y="607.14" width="21.67" height="21.67" rx="5.12"/><rect class="cls-6" x="1016.52" y="607.14" width="21.67" height="21.67" rx="5.12"/><rect class="cls-6" x="1055.01" y="607.14" width="21.67" height="21.67" rx="5.12"/><rect class="cls-6" x="978.02" y="642.44" width="21.67" height="21.67" rx="5.12"/><rect class="cls-6" x="1016.52" y="642.44" width="21.67" height="21.67" rx="5.12"/><rect class="cls-6" x="1055.01" y="642.44" width="21.67" height="21.67" rx="5.12"/><rect class="cls-6" x="978.02" y="677.75" width="21.67" height="21.67" rx="5.12"/><rect class="cls-6" x="1016.52" y="677.75" width="21.67" height="21.67" rx="5.12"/><rect class="cls-6" x="1055.01" y="677.75" width="21.67" height="21.67" rx="5.12"/><path class="cls-4" d="M965.7,751.23H1089a0,0,0,0,1,0,0v65.21a18.66,18.66,0,0,1-18.66,18.66h-86a18.66,18.66,0,0,1-18.66-18.66V751.23A0,0,0,0,1,965.7,751.23Z"/><rect class="cls-6" x="976.93" y="771.14" width="98.65" height="9.65"/><rect class="cls-4" x="976.93" y="1127.49" width="112.07" height="125.09"/><rect class="cls-6" x="999.69" y="1147.5" width="70.34" height="81.06"/><polygon class="cls-6" points="1034.86 1113.13 991.19 1083.31 1078.53 1083.31 1034.86 1113.13"/><polygon class="cls-3" points="739.29 1309.49 204.68 1309.49 204.68 1175.14 723.7 1153.06 739.29 1175.14 739.29 1309.49"/><rect class="cls-4" x="204.68" y="1153.06" width="519.01" height="134.35"/><rect class="cls-6" x="218.78" y="1174.01" width="489.91" height="89.58"/><polygon class="cls-8" points="461.51 1258.38 417.84 1228.56 505.18 1228.56 461.51 1258.38"/><path class="cls-8" d="M388.14,803.14h8.66a20.17,20.17,0,0,1,5.4.56,5.91,5.91,0,0,1,2.84,1.59,5.42,5.42,0,0,1,1.29,2.52,22.91,22.91,0,0,1,.34,4.58v2.88a11.93,11.93,0,0,1-.66,4.62,4.44,4.44,0,0,1-2.4,2.23,11.45,11.45,0,0,1-4.56.77h-2.31v13.32h-8.6Zm8.6,5.66v8.41c.25,0,.46,0,.63,0a2,2,0,0,0,1.65-.58,4.24,4.24,0,0,0,.46-2.42v-2.71a3.22,3.22,0,0,0-.53-2.21A3.35,3.35,0,0,0,396.74,808.8Z" transform="translate(30.37 385.58)"/><path class="cls-8" d="M428.68,803.14v22.1a37.2,37.2,0,0,1-.25,5.28,7.15,7.15,0,0,1-1.44,3.12,7.58,7.58,0,0,1-3.18,2.43,12,12,0,0,1-4.65.83,13.1,13.1,0,0,1-5.22-1,7.78,7.78,0,0,1-3.39-2.55,7,7,0,0,1-1.33-3.32c-.14-1.17-.21-3.61-.21-7.34V803.14h8.6v24.8a9.52,9.52,0,0,0,.24,2.76.91.91,0,0,0,.95.6,1,1,0,0,0,1.05-.66,12.76,12.76,0,0,0,.23-3.13V803.14Z" transform="translate(30.37 385.58)"/><path class="cls-8" d="M450.22,813.15h-8V810.7a4.76,4.76,0,0,0-.31-2.19,1.12,1.12,0,0,0-1-.47,1.29,1.29,0,0,0-1.17.64,3.62,3.62,0,0,0-.4,1.92,5.42,5.42,0,0,0,.45,2.49,6.32,6.32,0,0,0,2.43,2q5.73,3.42,7.23,5.6t1.49,7a12.38,12.38,0,0,1-.83,5.21,6.46,6.46,0,0,1-3.19,2.81,12.74,12.74,0,0,1-5.52,1.13,12.35,12.35,0,0,1-5.89-1.31,6.42,6.42,0,0,1-3.2-3.33,17.13,17.13,0,0,1-.75-5.73v-2.17h8v4a5.34,5.34,0,0,0,.34,2.39,1.3,1.3,0,0,0,1.2.53,1.39,1.39,0,0,0,1.27-.67,3.84,3.84,0,0,0,.42-2c0-2-.27-3.22-.8-3.82a24.79,24.79,0,0,0-4-3,40.76,40.76,0,0,1-4.25-3.08,7.21,7.21,0,0,1-1.72-2.66,11.58,11.58,0,0,1-.69-4.33,12.08,12.08,0,0,1,1-5.55,6.58,6.58,0,0,1,3.14-2.75,12.48,12.48,0,0,1,5.23-1,13.61,13.61,0,0,1,5.7,1.08,5.94,5.94,0,0,1,3.13,2.73,14.44,14.44,0,0,1,.76,5.58Z" transform="translate(30.37 385.58)"/><path class="cls-8" d="M473.4,803.14v33.07h-8.6V822.32h-2.57v13.89h-8.6V803.14h8.6V815h2.57V803.14Z" transform="translate(30.37 385.58)"/><path class="cls-9" d="M33.31-335.59c-2.57,7-2.45,14.73-2.31,22.22l2,99.7c.07,3.86.18,7.87,1.85,11.36S40.17-196,44-196.6c5-.8,7.41-6.56,8.28-11.56,2.47-14.15.09-28.64-1.45-42.92a362.48,362.48,0,0,1-2-47.63c.16-6.7.53-13.49,2.65-19.85a38.22,38.22,0,0,1,30.94-25.28c4.5-.55,9.23-.31,13.38-2.13s7.48-6.79,5.51-10.88c-1.91-3.94-7.18-4.6-11.55-4.46C71.68-360.73,40.58-355.5,33.31-335.59Z" transform="translate(30.37 385.58)"/><path class="cls-9" d="M132.36-345.44a96.58,96.58,0,0,0,14.2,1.49c28.47,1.2,57-4.18,85.38-1.37,2,.2,4.45.3,5.74-1.29a6.12,6.12,0,0,0,1-3.48c.29-3.89.16-8.63-3.21-10.58a10.54,10.54,0,0,0-4.55-1l-22.23-1.63c-11.64-.86-23.3-1.72-35-1.57-10.42.13-25.22-.58-35,3.49C134.23-359.54,122.35-347.35,132.36-345.44Z" transform="translate(30.37 385.58)"/><rect class="cls-10" x="157.26" y="222.98" width="606.3" height="25.6"/><rect class="cls-10" x="157.26" y="373.8" width="606.3" height="25.6"/><rect class="cls-10" x="157.26" y="524.63" width="606.3" height="25.6"/><rect class="cls-10" x="157.26" y="675.45" width="606.3" height="25.6"/><rect class="cls-10" x="157.26" y="826.28" width="606.3" height="25.6"/><rect class="cls-10" x="157.26" y="977.1" width="606.3" height="25.6"/><polygon class="cls-11" points="158.83 487.59 614.22 104.64 754.81 103.73 158.36 685.04 158.83 487.59"/><polygon class="cls-11" points="158.83 900.41 763.56 325.27 763.56 437.45 158.83 1075.08 158.83 900.41"/><path class="cls-11" d="M387.47,697.73c-1,0,345.72-312.17,345.72-312.17l1.1,117.91L573.91,697.73Z" transform="translate(30.37 385.58)"/><path class="cls-9" d="M704.29-339.36c113.26,7.55,230.1-5.46,343,2.9,22.88,1.7,52,3.35,64.21-4.12,10.24-6.25-.78-15.13-17.76-18.87s-37.49-3.75-56.92-3.65L720-361.55C675.43-361.33,647.35-343.15,704.29-339.36Z" transform="translate(30.37 385.58)"/><polygon class="cls-12" points="764.66 104.64 158.36 104.64 158.36 1083.31 142.63 1091.23 142.63 88.49 778.44 88.49 764.66 104.64"/></svg>